<svg width="20" height="20" viewBox="0 0 20 20" fill="none" xmlns="http://www.w3.org/2000/svg">
<path d="M9.99997 0C15.5224 0 20 4.4775 20 10C20 15.5226 15.5225 20 10 20C4.47757 20 0 15.5225 0 10C0 4.47757 4.47688 0 9.99997 0Z" fill="#0077B7"/>
<path d="M13.4512 4.37378H6.54815C5.34878 4.37378 4.37376 5.34941 4.37376 6.54816V13.4519C4.37376 14.6513 5.34939 15.6263 6.54815 15.6263H13.4519C14.6513 15.6263 15.6263 14.6507 15.6263 13.4519V6.54816C15.6262 5.34941 14.6506 4.37378 13.4512 4.37378ZM14.1363 5.63192L14.3825 5.6313V7.4988L12.5013 7.50505L12.495 5.63755C12.495 5.63755 14.1363 5.63192 14.1363 5.63192ZM10 8.11751C11.5607 8.11751 11.8825 9.5825 11.8825 10.0006C11.8825 11.0375 11.0375 11.8825 10 11.8825C8.96193 11.8825 8.11756 11.0375 8.11756 10.0006C8.11687 9.5825 8.43941 8.11751 10 8.11751ZM14.3932 13.3157C14.3932 13.9101 13.91 14.3938 13.3144 14.3938H6.66438C6.06936 14.3938 5.58563 13.9107 5.58563 13.3157V8.74754H7.14811C7.00311 9.1044 6.92121 9.5919 6.92121 10.0007C6.92121 11.6969 8.30121 13.0776 9.99811 13.0776C11.695 13.0776 13.0743 11.6969 13.0743 10.0007C13.0743 9.5919 12.9924 9.1044 12.848 8.74754H14.3918V13.3157H14.3932Z" fill="white"/>
</svg>
