<svg width="20" height="20" viewBox="0 0 20 20" fill="none" xmlns="http://www.w3.org/2000/svg">
<path d="M9.99997 0C15.5231 0 20 4.4775 20 10C20 15.5226 15.5231 20 9.99997 20C4.47681 20 0 15.5225 0 10C0 4.47757 4.47688 0 9.99997 0Z" fill="#0077B7"/>
<path d="M5.63499 13.74H7.50751V7.4987H5.63499V13.74ZM12.93 7.28252C12.0213 7.28252 11.2081 7.61438 10.6313 8.34692V7.47818H8.75192V13.74H10.6313V10.3538C10.6313 9.63815 11.2869 8.94001 12.1082 8.94001C12.9294 8.94001 13.1319 9.63815 13.1319 10.3363V13.7394H15.0044V10.1969C15.0044 7.73624 13.8394 7.28252 12.93 7.28252ZM6.5625 6.87499C7.08001 6.87499 7.50003 6.45497 7.50003 5.93746C7.50003 5.41995 7.08001 5 6.5625 5C6.04499 5 5.62497 5.42002 5.62497 5.93753C5.62497 6.45504 6.04499 6.87499 6.5625 6.87499Z" fill="white"/>
</svg>
